<?xml version="1.0" encoding="utf-8"?>
<!-- Generator: Adobe Illustrator 15.0.2, SVG Export Plug-In . SVG Version: 6.00 Build 0)  -->
<!DOCTYPE svg PUBLIC "-//W3C//DTD SVG 1.1//EN" "http://www.w3.org/Graphics/SVG/1.1/DTD/svg11.dtd">
<svg version="1.1" id="Layer_1" xmlns="http://www.w3.org/2000/svg" xmlns:xlink="http://www.w3.org/1999/xlink" x="0px" y="0px"
   width="183.484px" height="48px" viewBox="195.118 150.33 183.484 48" enable-background="new 195.118 150.33 183.484 48"
   xml:space="preserve">
<g>
  <g>
    <g>
      <g>
        <g>
          <path fill="#DDE72B" d="M201.369,171.279v-7.97c0-1.719-1.407-3.125-3.125-3.125s-3.125,1.406-3.125,3.125v11.486l5-1.797
            v-0.078C200.119,172.139,200.666,171.514,201.369,171.279z"/>
          <path fill="#DDE72B" d="M200.353,173.702l-5.235,1.954v8.438c0,1.719,1.407,3.125,3.125,3.125s3.125-1.406,3.125-3.125v-9.533
            C200.9,174.405,200.587,174.092,200.353,173.702z"/>
          <path fill="#1DA3DE" d="M203.479,172.92c0,0.078,0,0.156,0,0.234l4.141,1.875c0.235-0.312,0.547-0.469,0.859-0.625v-7.11
            c0-1.719-1.406-3.125-3.125-3.125c-1.719,0-3.125,1.406-3.125,3.125v3.984C202.932,171.436,203.479,172.139,203.479,172.92z"/>
          <path fill="#1DA3DE" d="M202.229,174.561v5.548c0,1.718,1.406,3.125,3.125,3.125c1.72,0,3.125-1.407,3.125-3.125v-2.422
            c-0.703-0.156-1.25-0.859-1.25-1.641c0-0.078,0-0.234,0-0.312l-4.062-1.875C202.932,174.17,202.619,174.405,202.229,174.561z"
            />
        </g>
        <path fill="#96CD41" d="M215.59,171.279v-9.063c0-1.719-1.407-3.125-3.125-3.125c-1.719,0-3.125,1.407-3.125,3.125v12.267
          c0.391,0.078,0.703,0.312,0.938,0.625l4.141-1.797c0-0.078,0-0.235,0-0.313C214.339,172.139,214.886,171.436,215.59,171.279z"/>
        <path fill="#96CD41" d="M209.339,177.687v7.501c0,1.719,1.406,3.125,3.125,3.125c1.719,0,3.125-1.407,3.125-3.125v-10.626
          c-0.391-0.078-0.704-0.312-0.86-0.625l-4.141,1.797c0,0.078,0,0.234,0,0.312C210.589,176.827,210.12,177.53,209.339,177.687z"/>
      </g>
      <path fill="#D93097" d="M217.387,171.904l5.313-2.344v-4.063c0-1.719-1.406-3.125-3.125-3.125c-1.719,0-3.125,1.406-3.125,3.125
        v5.782C216.84,171.357,217.23,171.592,217.387,171.904z"/>
      <path fill="#D93097" d="M216.527,174.561v7.423c0,1.719,1.407,3.125,3.126,3.125c1.718,0,3.125-1.406,3.125-3.125V170.42
        l-5,2.188c0,0.079,0,0.156,0,0.313C217.777,173.702,217.23,174.327,216.527,174.561z"/>
      <circle fill="#DDE72B" cx="216.058" cy="172.92" r="0.938"/>
      <circle fill="#DDE72B" cx="208.948" cy="176.046" r="0.938"/>
      <circle fill="#DDE72B" cx="201.838" cy="172.92" r="0.938"/>
    </g>
  </g>
  <g>
    <g>
      <g>
        <path fill="#d2bdde" d="M323.821,180.193h-3.049l-2.164-3.442h-4.131v3.442h-2.655v-10.425h7.868
          c1.082,0,2.065,0.295,2.754,0.983c0.689,0.688,0.984,1.476,0.984,2.557c0,1.574-0.689,2.557-1.967,3.147L323.821,180.193z
           M319.297,174.587c0.492,0,0.787-0.099,1.082-0.394c0.295-0.295,0.393-0.59,0.393-0.983c0-0.787-0.492-1.18-1.475-1.18h-4.819
          v2.557H319.297z"/>
      </g>
      <g>
        <path fill="#d2bdde" d="M240.912,167.898c2.065,0,3.639,0.591,4.917,1.672c1.18,1.18,1.77,2.656,1.77,4.524
          c0,1.77-0.688,3.245-1.967,4.426c-1.18,1.082-2.656,1.573-4.328,1.573h-7.77v-12.196H240.912z M241.01,177.833
          c1.278,0,2.262-0.492,2.95-1.574c0.492-0.688,0.689-1.377,0.689-2.164c0-1.082-0.394-2.065-1.082-2.754
          c-0.688-0.689-1.574-1.082-2.655-1.082h-4.819v7.573H241.01L241.01,177.833z"/>
      </g>
      <g>
        <path fill="#d2bdde" d="M261.369,180.193h-2.753l-1.279-2.557h-5.409l-1.279,2.557h-2.753l5.212-10.425h3.049L261.369,180.193z
           M256.255,175.668l-1.672-3.442l-1.672,3.442H256.255z"/>
      </g>
      <g>
        <path fill="#d2bdde" d="M271.499,171.931h-4.426v8.262h-2.753v-8.262h-4.426v-2.164h11.605V171.931L271.499,171.931z"/>
      </g>
      <g>
        <path fill="#d2bdde" d="M283.399,180.193h-2.754l-1.278-2.557h-5.409l-1.279,2.557h-2.754l5.212-10.425h3.049L283.399,180.193z
           M278.384,175.668l-1.672-3.442l-1.672,3.442H278.384z"/>
      </g>
      <g>
        <path fill="#d2bdde" d="M297.07,170.062h-5.213v10.13h-2.655v-10.13h-5.311v-2.164h13.179V170.062L297.07,170.062z"/>
      </g>
      <g>
        <path fill="#d2bdde" d="M309.855,174.882c0,1.574-0.59,2.852-1.672,3.836c-1.279,1.082-2.951,1.672-4.917,1.672
          s-3.639-0.59-4.917-1.672c-1.082-0.984-1.672-2.262-1.672-3.836s0.59-2.852,1.672-3.835c1.279-1.082,2.951-1.672,4.917-1.672
          s3.541,0.59,4.917,1.672C309.364,172.128,309.855,173.407,309.855,174.882z M307.102,174.882c0-0.885-0.394-1.672-1.082-2.262
          c-0.688-0.59-1.672-0.885-2.754-0.885c-1.18,0-2.065,0.295-2.754,0.885c-0.688,0.59-1.082,1.377-1.082,2.262
          c0,0.983,0.393,1.77,1.082,2.262c0.688,0.59,1.672,0.885,2.853,0.885c1.18,0,2.065-0.295,2.753-0.885
          C306.807,176.652,307.102,175.865,307.102,174.882z"/>
      </g>
      <g>
        <path fill="#d2bdde" d="M338.082,180.193h-3.049l-2.164-3.442h-4.131v3.442h-2.655v-10.425h7.868
          c1.082,0,2.065,0.295,2.754,0.983s0.983,1.476,0.983,2.557c0,1.574-0.688,2.557-1.967,3.147L338.082,180.193z M333.46,174.587
          c0.491,0,0.787-0.099,1.082-0.394c0.294-0.295,0.393-0.59,0.393-0.983c0-0.787-0.492-1.18-1.475-1.18h-4.819v2.557
          C328.64,174.587,333.46,174.587,333.46,174.587z"/>
      </g>
      <g>
        <path fill="#d2bdde" d="M350.573,180.193h-10.523v-10.425h10.229v2.262h-7.475v1.869h5.115v2.164h-5.115v1.967h7.868v2.164
          H350.573z"/>
      </g>
      <g>
        <path fill="#d2bdde" d="M364.833,180.193h-3.147l-5.901-6.885l0,0v6.885h-2.655v-10.425h3.147l5.999,6.884v-6.884h2.656
          L364.833,180.193L364.833,180.193z"/>
      </g>
      <g>
        <path fill="#d2bdde" d="M378.504,171.931h-4.425v8.262h-2.656v-8.262h-4.426v-2.164h11.605L378.504,171.931L378.504,171.931z"/>
      </g>
    </g>
  </g>
</g>
</svg>
